<?xml version="1.0" encoding="UTF-8" standalone="no"?>
<svg
   xmlns:dc="http://purl.org/dc/elements/1.1/"
   xmlns:cc="http://creativecommons.org/ns#"
   xmlns:rdf="http://www.w3.org/1999/02/22-rdf-syntax-ns#"
   xmlns:svg="http://www.w3.org/2000/svg"
   xmlns="http://www.w3.org/2000/svg"
   xmlns:sodipodi="http://sodipodi.sourceforge.net/DTD/sodipodi-0.dtd"
   xmlns:inkscape="http://www.inkscape.org/namespaces/inkscape"
   version="1.1"
   id="svg4583"
   viewBox="0 0 736.65011 158.08978"
   height="44.616447mm"
   width="207.89903mm"
   inkscape:version="0.91 r13725"
   sodipodi:docname="logo2.svg">
  <sodipodi:namedview
     pagecolor="#000000"
     bordercolor="#666666"
     borderopacity="1"
     objecttolerance="10"
     gridtolerance="10"
     guidetolerance="10"
     inkscape:pageopacity="0"
     inkscape:pageshadow="2"
     inkscape:window-width="1366"
     inkscape:window-height="720"
     id="namedview5283"
     showgrid="true"
     inkscape:zoom="1.4142136"
     inkscape:cx="474.67435"
     inkscape:cy="39.756544"
     inkscape:window-x="0"
     inkscape:window-y="0"
     inkscape:window-maximized="1"
     inkscape:current-layer="layer1"
     showguides="false"
     inkscape:guide-bbox="true"
     fit-margin-top="2"
     fit-margin-left="2"
     fit-margin-right="2"
     fit-margin-bottom="2">
    <inkscape:grid
       type="xygrid"
       id="grid5825"
       originx="-22.911158"
       originy="-22.789747" />
    <sodipodi:guide
       position="-0.097212727,7.210256"
       orientation="0,1"
       id="guide5827" />
    <sodipodi:guide
       position="202.08885,115.65711"
       orientation="0,1"
       id="guide5829" />
    <sodipodi:guide
       position="152.08885,149.82746"
       orientation="0,1"
       id="guide5831" />
  </sodipodi:namedview>
  <defs
     id="defs4585" />
  <metadata
     id="metadata4588">
    <rdf:RDF>
      <cc:Work
         rdf:about="">
        <dc:format>image/svg+xml</dc:format>
        <dc:type
           rdf:resource="http://purl.org/dc/dcmitype/StillImage" />
        <dc:title></dc:title>
      </cc:Work>
    </rdf:RDF>
  </metadata>
  <g
     transform="translate(4.3285142,-40.354533)"
     id="layer1"
     style="stroke:#000000;stroke-width:4;stroke-linecap:butt;stroke-linejoin:miter;stroke-miterlimit:4;stroke-dasharray:none;stroke-opacity:1">
    <g
       id="text3687"
       style="font-style:normal;font-variant:normal;font-weight:900;font-stretch:normal;font-size:97.85713959px;line-height:125%;font-family:Orbitron;-inkscape-font-specification:'Orbitron Heavy';letter-spacing:0px;word-spacing:0px;fill:#000000;fill-opacity:1;stroke:none;stroke-width:2.72585797;stroke-linecap:butt;stroke-linejoin:round;stroke-miterlimit:4;stroke-dasharray:none;stroke-opacity:1"
       transform="matrix(0.80014733,0,0,0.80014733,-1128.5271,-1010.3326)">
      <path
         id="path3694"
         style="fill:#646464;fill-opacity:1;stroke:#646464;stroke-width:2.72574806;stroke-linecap:butt;stroke-linejoin:miter;stroke-miterlimit:4;stroke-dasharray:none;stroke-opacity:1"
         d="m 2312.7501,1337.637 c 0,-7.8898 -6.4105,-14.3004 -14.3004,-14.3004 l -38.3649,0 c -7.8899,0 -14.3991,6.4106 -14.3991,14.3004 l 0,6.312 15.0895,0 0,-5.5229 36.8855,0 0,12.6239 -25.2814,0 0,15.0895 27.9442,0 0,13.1171 -39.5483,0 0,-4.7341 -15.0895,0 0,5.523 c 0,7.7913 6.5092,14.3005 14.3991,14.3005 l 41.0277,0 c 7.89,0 14.3006,-6.5092 14.3006,-14.3005 l 0,-14.695 c 0,-3.4519 -1.2822,-6.6078 -3.2547,-8.9748 0.3945,-1.3808 0.5917,-3.0574 0.5917,-4.5367 z"
         inkscape:connector-curvature="0"
         sodipodi:nodetypes="ssssccccccccccccssssscss" />
    </g>
    <path
       inkscape:connector-curvature="0"
       d="m 83.2381,50.6181 0,34.2 -52.38,0 c -14.4,0 -26.1,11.88 -26.1,26.1 l 0,52.2 c 0,14.22 11.7,26.1 26.1,26.1 l 79.92,0 0,-138.6 -27.54,0 z m -50.76,61.74 50.76,0 0,49.32 -50.76,0 0,-49.32 z"
       style="font-style:normal;font-variant:normal;font-weight:900;font-stretch:normal;font-size:medium;line-height:125%;font-family:Orbitron;-inkscape-font-specification:'Orbitron Heavy';letter-spacing:-7px;word-spacing:0px;fill:#646464;fill-opacity:1;stroke:#646464;stroke-width:4;stroke-linecap:butt;stroke-linejoin:miter;stroke-miterlimit:4;stroke-dasharray:none;stroke-opacity:1"
       id="path3703" />
    <path
       inkscape:connector-curvature="0"
       d="m 200.9745,84.8181 -52.2,0 0,-34.2 -27.54,0 0,138.6 27.54,0 0,-76.86 50.76,0 0,76.86 27.54,0 0,-78.3 c 0,-14.22 -11.88,-26.1 -26.1,-26.1 z"
       style="font-style:normal;font-variant:normal;font-weight:900;font-stretch:normal;font-size:medium;line-height:125%;font-family:Orbitron;-inkscape-font-specification:'Orbitron Heavy';letter-spacing:-7px;word-spacing:0px;fill:#646464;fill-opacity:1;stroke:#646464;stroke-width:4;stroke-linecap:butt;stroke-linejoin:miter;stroke-miterlimit:4;stroke-dasharray:none;stroke-opacity:1"
       id="path3705" />
    <path
       inkscape:connector-curvature="0"
       d="m 315.8243,84.8181 -53.64,0 c -14.22,0 -26.1,11.88 -26.1,26.1 l 0,52.2 c 0,14.22 11.88,26.1 26.1,26.1 l 79.74,0 0,-27.54 -78.3,0 0,-10.8 78.3,0 0,-39.96 c 0,-14.22 -11.7,-26.1 -26.1,-26.1 z m -52.2,41.94 0,-14.4 50.76,0 0,14.4 -50.76,0 z"
       style="font-style:normal;font-variant:normal;font-weight:900;font-stretch:normal;font-size:medium;line-height:125%;font-family:Orbitron;-inkscape-font-specification:'Orbitron Heavy';letter-spacing:-7px;word-spacing:0px;fill:#646464;fill-opacity:1;stroke:#646464;stroke-width:4;stroke-linecap:butt;stroke-linejoin:miter;stroke-miterlimit:4;stroke-dasharray:none;stroke-opacity:1"
       id="path3707" />
    <g
       id="text4269-8-3-8-5"
       style="font-style:normal;font-variant:normal;font-weight:900;font-stretch:normal;font-size:180px;line-height:125%;font-family:Orbitron;-inkscape-font-specification:'Orbitron Heavy';letter-spacing:-13.74999714px;word-spacing:0px;fill:#646464;fill-opacity:1;stroke:#646464;stroke-width:4;stroke-linecap:butt;stroke-linejoin:miter;stroke-miterlimit:4;stroke-dasharray:none;stroke-opacity:1"
       transform="translate(-1572.4891,-1273.8642)">
      <path
         id="path3700"
         style="fill:#646464;fill-opacity:1;stroke:#646464;stroke-width:4;stroke-linecap:butt;stroke-linejoin:miter;stroke-miterlimit:4;stroke-dasharray:none;stroke-opacity:1"
         d="m 2211.2431,1358.8219 -125.64,0 0,104.4 27.54,0 0,-76.86 34.56,0 0,76.86 27.72,0 0,-76.86 34.56,0 0,76.86 27.36,0 0,-78.3 c 0,-14.22 -11.7,-26.1 -26.1,-26.1 z"
         inkscape:connector-curvature="0" />
    </g>
    <g
       id="text4269-8-3-8-7-5"
       style="font-style:normal;font-variant:normal;font-weight:900;font-stretch:normal;font-size:180px;line-height:125%;font-family:Orbitron;-inkscape-font-specification:'Orbitron Heavy';letter-spacing:-7px;word-spacing:0px;fill:#646464;fill-opacity:1;stroke:#646464;stroke-width:4;stroke-linecap:butt;stroke-linejoin:miter;stroke-miterlimit:4;stroke-dasharray:none;stroke-opacity:1"
       transform="matrix(-1,0,0,-1,-1572.5834,-1274.3712)">
      <path
         id="path3697"
         style="fill:#646464;fill-opacity:1;stroke:#646464;stroke-width:4;stroke-linecap:butt;stroke-linejoin:miter;stroke-miterlimit:4;stroke-dasharray:none;stroke-opacity:1"
         d="m -1950.2787,-1463.6178 -125.64,0 0,104.4 27.54,0 0,-76.86 34.56,0 0,76.86 27.72,0 0,-76.86 34.56,0 0,76.86 27.36,0 0,-78.3 c 0,-14.22 -11.7,-26.1 -26.1,-26.1 z"
         inkscape:connector-curvature="0" />
    </g>
  </g>
</svg>
